<mxfile host="Electron" agent="Mozilla/5.0 (Windows NT 10.0; Win64; x64) AppleWebKit/537.36 (KHTML, like Gecko) draw.io/24.7.8 Chrome/128.0.6613.36 Electron/32.0.1 Safari/537.36" version="24.7.8">
  <diagram name="PÃ¡gina-1" id="rxCxpWAW3Ax_vHqKQAPg">
    <mxGraphModel dx="1035" dy="626" grid="1" gridSize="10" guides="1" tooltips="1" connect="1" arrows="1" fold="1" page="1" pageScale="1" pageWidth="827" pageHeight="1169" math="0" shadow="0">
      <root>
        <mxCell id="0" />
        <mxCell id="1" parent="0" />
        <mxCell id="zPcdAUlhvBkFaZPALM-u-1" value="Ejercicio 4&amp;nbsp; - Practica 2&lt;br&gt;Modelado Conceptual" style="text;html=1;align=center;verticalAlign=middle;resizable=0;points=[];autosize=1;strokeColor=none;fillColor=none;" parent="1" vertex="1">
          <mxGeometry x="31" width="150" height="40" as="geometry" />
        </mxCell>
        <mxCell id="zPcdAUlhvBkFaZPALM-u-26" value="" style="edgeStyle=orthogonalEdgeStyle;rounded=0;orthogonalLoop=1;jettySize=auto;html=1;" parent="1" source="zPcdAUlhvBkFaZPALM-u-3" target="zPcdAUlhvBkFaZPALM-u-25" edge="1">
          <mxGeometry relative="1" as="geometry">
            <Array as="points">
              <mxPoint x="211" y="650" />
            </Array>
          </mxGeometry>
        </mxCell>
        <mxCell id="zPcdAUlhvBkFaZPALM-u-29" value="" style="edgeStyle=orthogonalEdgeStyle;rounded=0;orthogonalLoop=1;jettySize=auto;html=1;" parent="1" source="zPcdAUlhvBkFaZPALM-u-3" target="zPcdAUlhvBkFaZPALM-u-28" edge="1">
          <mxGeometry relative="1" as="geometry">
            <Array as="points">
              <mxPoint x="210" y="400" />
              <mxPoint x="210" y="400" />
            </Array>
          </mxGeometry>
        </mxCell>
        <mxCell id="zPcdAUlhvBkFaZPALM-u-34" value="" style="edgeStyle=orthogonalEdgeStyle;rounded=0;orthogonalLoop=1;jettySize=auto;html=1;" parent="1" target="zPcdAUlhvBkFaZPALM-u-33" edge="1">
          <mxGeometry relative="1" as="geometry">
            <mxPoint x="201.0588235294117" y="480" as="sourcePoint" />
          </mxGeometry>
        </mxCell>
        <mxCell id="zPcdAUlhvBkFaZPALM-u-50" value="" style="edgeStyle=orthogonalEdgeStyle;rounded=0;orthogonalLoop=1;jettySize=auto;html=1;entryX=0.5;entryY=1;entryDx=0;entryDy=0;exitX=1.015;exitY=0.103;exitDx=0;exitDy=0;exitPerimeter=0;" parent="1" source="zPcdAUlhvBkFaZPALM-u-3" target="zPcdAUlhvBkFaZPALM-u-49" edge="1">
          <mxGeometry relative="1" as="geometry">
            <mxPoint x="205.9988235294117" y="374.5" as="sourcePoint" />
            <mxPoint x="310.94" y="214.5" as="targetPoint" />
          </mxGeometry>
        </mxCell>
        <mxCell id="CMqeh2ualkHhBmL2ZSUL-71" style="edgeStyle=orthogonalEdgeStyle;rounded=0;orthogonalLoop=1;jettySize=auto;html=1;entryX=1;entryY=0.5;entryDx=0;entryDy=0;" edge="1" parent="1" source="zPcdAUlhvBkFaZPALM-u-3" target="CMqeh2ualkHhBmL2ZSUL-15">
          <mxGeometry relative="1" as="geometry">
            <mxPoint x="150" y="580" as="targetPoint" />
            <Array as="points">
              <mxPoint x="150" y="460" />
              <mxPoint x="150" y="510" />
              <mxPoint x="121" y="510" />
            </Array>
          </mxGeometry>
        </mxCell>
        <mxCell id="CMqeh2ualkHhBmL2ZSUL-75" style="edgeStyle=orthogonalEdgeStyle;rounded=0;orthogonalLoop=1;jettySize=auto;html=1;endArrow=oval;endFill=1;" edge="1" parent="1" source="zPcdAUlhvBkFaZPALM-u-3">
          <mxGeometry relative="1" as="geometry">
            <mxPoint x="140" y="120" as="targetPoint" />
            <Array as="points">
              <mxPoint x="211" y="360" />
              <mxPoint x="141" y="360" />
              <mxPoint x="141" y="120" />
            </Array>
          </mxGeometry>
        </mxCell>
        <mxCell id="zPcdAUlhvBkFaZPALM-u-3" value="TIENDA" style="rounded=0;whiteSpace=wrap;html=1;" parent="1" vertex="1">
          <mxGeometry x="151" y="430" width="120" height="60" as="geometry" />
        </mxCell>
        <mxCell id="zPcdAUlhvBkFaZPALM-u-40" value="" style="edgeStyle=orthogonalEdgeStyle;rounded=0;orthogonalLoop=1;jettySize=auto;html=1;" parent="1" source="zPcdAUlhvBkFaZPALM-u-4" target="zPcdAUlhvBkFaZPALM-u-39" edge="1">
          <mxGeometry relative="1" as="geometry" />
        </mxCell>
        <mxCell id="zPcdAUlhvBkFaZPALM-u-4" value="PERSONA" style="whiteSpace=wrap;html=1;" parent="1" vertex="1">
          <mxGeometry x="571" y="20" width="120" height="60" as="geometry" />
        </mxCell>
        <mxCell id="zPcdAUlhvBkFaZPALM-u-10" style="edgeStyle=orthogonalEdgeStyle;rounded=0;orthogonalLoop=1;jettySize=auto;html=1;entryX=0.5;entryY=1;entryDx=0;entryDy=0;" parent="1" source="zPcdAUlhvBkFaZPALM-u-5" target="zPcdAUlhvBkFaZPALM-u-4" edge="1">
          <mxGeometry relative="1" as="geometry" />
        </mxCell>
        <mxCell id="zPcdAUlhvBkFaZPALM-u-23" value="" style="edgeStyle=orthogonalEdgeStyle;rounded=0;orthogonalLoop=1;jettySize=auto;html=1;" parent="1" source="zPcdAUlhvBkFaZPALM-u-5" target="zPcdAUlhvBkFaZPALM-u-22" edge="1">
          <mxGeometry relative="1" as="geometry">
            <Array as="points">
              <mxPoint x="570" y="220" />
              <mxPoint x="650" y="220" />
            </Array>
          </mxGeometry>
        </mxCell>
        <mxCell id="zPcdAUlhvBkFaZPALM-u-37" value="" style="edgeStyle=orthogonalEdgeStyle;rounded=0;orthogonalLoop=1;jettySize=auto;html=1;" parent="1" source="zPcdAUlhvBkFaZPALM-u-5" target="zPcdAUlhvBkFaZPALM-u-36" edge="1">
          <mxGeometry relative="1" as="geometry" />
        </mxCell>
        <mxCell id="CMqeh2ualkHhBmL2ZSUL-43" style="edgeStyle=orthogonalEdgeStyle;rounded=0;orthogonalLoop=1;jettySize=auto;html=1;entryX=0.5;entryY=0;entryDx=0;entryDy=0;" edge="1" parent="1" source="zPcdAUlhvBkFaZPALM-u-5" target="CMqeh2ualkHhBmL2ZSUL-42">
          <mxGeometry relative="1" as="geometry">
            <Array as="points">
              <mxPoint x="481" y="230" />
              <mxPoint x="481" y="230" />
            </Array>
          </mxGeometry>
        </mxCell>
        <mxCell id="CMqeh2ualkHhBmL2ZSUL-62" style="edgeStyle=orthogonalEdgeStyle;rounded=0;orthogonalLoop=1;jettySize=auto;html=1;endArrow=oval;endFill=1;" edge="1" parent="1">
          <mxGeometry relative="1" as="geometry">
            <mxPoint x="540" y="400" as="targetPoint" />
            <mxPoint x="480" y="220" as="sourcePoint" />
          </mxGeometry>
        </mxCell>
        <mxCell id="zPcdAUlhvBkFaZPALM-u-5" value="EMPLEADO" style="whiteSpace=wrap;html=1;" parent="1" vertex="1">
          <mxGeometry x="461" y="140" width="120" height="60" as="geometry" />
        </mxCell>
        <mxCell id="zPcdAUlhvBkFaZPALM-u-11" style="edgeStyle=orthogonalEdgeStyle;rounded=0;orthogonalLoop=1;jettySize=auto;html=1;exitX=0.5;exitY=0;exitDx=0;exitDy=0;" parent="1" source="zPcdAUlhvBkFaZPALM-u-8" edge="1">
          <mxGeometry relative="1" as="geometry">
            <mxPoint x="631" y="80" as="targetPoint" />
          </mxGeometry>
        </mxCell>
        <mxCell id="CMqeh2ualkHhBmL2ZSUL-97" style="edgeStyle=orthogonalEdgeStyle;rounded=0;orthogonalLoop=1;jettySize=auto;html=1;entryX=0.5;entryY=0;entryDx=0;entryDy=0;" edge="1" parent="1" source="zPcdAUlhvBkFaZPALM-u-8" target="zPcdAUlhvBkFaZPALM-u-17">
          <mxGeometry relative="1" as="geometry">
            <Array as="points">
              <mxPoint x="731" y="210" />
              <mxPoint x="731" y="210" />
            </Array>
          </mxGeometry>
        </mxCell>
        <mxCell id="zPcdAUlhvBkFaZPALM-u-8" value="SUPERVISOR" style="whiteSpace=wrap;html=1;" parent="1" vertex="1">
          <mxGeometry x="680" y="140" width="120" height="60" as="geometry" />
        </mxCell>
        <mxCell id="zPcdAUlhvBkFaZPALM-u-12" value="SECTOR" style="whiteSpace=wrap;html=1;" parent="1" vertex="1">
          <mxGeometry x="151" y="130" width="120" height="60" as="geometry" />
        </mxCell>
        <mxCell id="CMqeh2ualkHhBmL2ZSUL-70" style="edgeStyle=orthogonalEdgeStyle;rounded=0;orthogonalLoop=1;jettySize=auto;html=1;endArrow=oval;endFill=1;endSize=6;startSize=5;" edge="1" parent="1">
          <mxGeometry relative="1" as="geometry">
            <mxPoint x="550" y="320" as="targetPoint" />
            <mxPoint x="470" y="480" as="sourcePoint" />
            <Array as="points">
              <mxPoint x="521" y="480" />
              <mxPoint x="521" y="450" />
              <mxPoint x="550" y="450" />
            </Array>
          </mxGeometry>
        </mxCell>
        <mxCell id="zPcdAUlhvBkFaZPALM-u-13" value="PRODUCTO" style="whiteSpace=wrap;html=1;" parent="1" vertex="1">
          <mxGeometry x="414" y="500" width="120" height="60" as="geometry" />
        </mxCell>
        <mxCell id="CMqeh2ualkHhBmL2ZSUL-51" value="" style="edgeStyle=orthogonalEdgeStyle;rounded=0;orthogonalLoop=1;jettySize=auto;html=1;" edge="1" parent="1" source="zPcdAUlhvBkFaZPALM-u-14" target="CMqeh2ualkHhBmL2ZSUL-47">
          <mxGeometry relative="1" as="geometry" />
        </mxCell>
        <mxCell id="zPcdAUlhvBkFaZPALM-u-14" value="VENTAS" style="whiteSpace=wrap;html=1;" parent="1" vertex="1">
          <mxGeometry x="411" y="335" width="120" height="60" as="geometry" />
        </mxCell>
        <mxCell id="zPcdAUlhvBkFaZPALM-u-15" value="(T,S)" style="text;html=1;align=center;verticalAlign=middle;resizable=0;points=[];autosize=1;strokeColor=none;fillColor=none;" parent="1" vertex="1">
          <mxGeometry x="626" y="88" width="50" height="30" as="geometry" />
        </mxCell>
        <mxCell id="zPcdAUlhvBkFaZPALM-u-17" value="supervisa" style="rhombus;whiteSpace=wrap;html=1;" parent="1" vertex="1">
          <mxGeometry x="701" y="245" width="60" height="60" as="geometry" />
        </mxCell>
        <mxCell id="zPcdAUlhvBkFaZPALM-u-20" value="GRUPO DE EMPLEADOS" style="whiteSpace=wrap;html=1;" parent="1" vertex="1">
          <mxGeometry x="626" y="420" width="120" height="60" as="geometry" />
        </mxCell>
        <mxCell id="zPcdAUlhvBkFaZPALM-u-24" value="" style="edgeStyle=orthogonalEdgeStyle;rounded=0;orthogonalLoop=1;jettySize=auto;html=1;" parent="1" source="zPcdAUlhvBkFaZPALM-u-22" target="zPcdAUlhvBkFaZPALM-u-20" edge="1">
          <mxGeometry relative="1" as="geometry">
            <Array as="points">
              <mxPoint x="650" y="400" />
              <mxPoint x="650" y="400" />
            </Array>
          </mxGeometry>
        </mxCell>
        <mxCell id="zPcdAUlhvBkFaZPALM-u-22" value="&lt;font style=&quot;font-size: 9px;&quot;&gt;pertenece a&lt;/font&gt;" style="rhombus;whiteSpace=wrap;html=1;" parent="1" vertex="1">
          <mxGeometry x="620" y="245" width="60" height="60" as="geometry" />
        </mxCell>
        <mxCell id="zPcdAUlhvBkFaZPALM-u-27" value="" style="edgeStyle=orthogonalEdgeStyle;rounded=0;orthogonalLoop=1;jettySize=auto;html=1;" parent="1" source="zPcdAUlhvBkFaZPALM-u-25" target="zPcdAUlhvBkFaZPALM-u-20" edge="1">
          <mxGeometry relative="1" as="geometry" />
        </mxCell>
        <mxCell id="zPcdAUlhvBkFaZPALM-u-25" value="&lt;font style=&quot;font-size: 9px;&quot;&gt;conformada por&lt;/font&gt;" style="rhombus;whiteSpace=wrap;html=1;rounded=0;" parent="1" vertex="1">
          <mxGeometry x="410" y="610" width="80" height="80" as="geometry" />
        </mxCell>
        <mxCell id="zPcdAUlhvBkFaZPALM-u-30" value="" style="edgeStyle=orthogonalEdgeStyle;rounded=0;orthogonalLoop=1;jettySize=auto;html=1;" parent="1" source="zPcdAUlhvBkFaZPALM-u-28" target="zPcdAUlhvBkFaZPALM-u-12" edge="1">
          <mxGeometry relative="1" as="geometry" />
        </mxCell>
        <mxCell id="zPcdAUlhvBkFaZPALM-u-28" value="&lt;font style=&quot;font-size: 10px;&quot;&gt;se divide por&lt;/font&gt;" style="rhombus;whiteSpace=wrap;html=1;rounded=0;" parent="1" vertex="1">
          <mxGeometry x="176" y="230" width="70" height="70" as="geometry" />
        </mxCell>
        <mxCell id="zPcdAUlhvBkFaZPALM-u-35" value="" style="edgeStyle=orthogonalEdgeStyle;rounded=0;orthogonalLoop=1;jettySize=auto;html=1;" parent="1" source="zPcdAUlhvBkFaZPALM-u-33" target="zPcdAUlhvBkFaZPALM-u-13" edge="1">
          <mxGeometry relative="1" as="geometry" />
        </mxCell>
        <mxCell id="zPcdAUlhvBkFaZPALM-u-33" value="&lt;font style=&quot;font-size: 8px;&quot;&gt;comercializa&lt;/font&gt;" style="rhombus;whiteSpace=wrap;html=1;rounded=0;" parent="1" vertex="1">
          <mxGeometry x="296" y="500" width="70" height="60" as="geometry" />
        </mxCell>
        <mxCell id="zPcdAUlhvBkFaZPALM-u-38" style="edgeStyle=orthogonalEdgeStyle;rounded=0;orthogonalLoop=1;jettySize=auto;html=1;entryX=1;entryY=0.5;entryDx=0;entryDy=0;" parent="1" source="zPcdAUlhvBkFaZPALM-u-36" target="zPcdAUlhvBkFaZPALM-u-12" edge="1">
          <mxGeometry relative="1" as="geometry" />
        </mxCell>
        <mxCell id="CMqeh2ualkHhBmL2ZSUL-30" style="edgeStyle=orthogonalEdgeStyle;rounded=0;orthogonalLoop=1;jettySize=auto;html=1;endArrow=none;endFill=0;" edge="1" parent="1">
          <mxGeometry relative="1" as="geometry">
            <mxPoint x="351" y="163.42857142857144" as="sourcePoint" />
            <mxPoint x="331" y="210" as="targetPoint" />
            <Array as="points">
              <mxPoint x="351" y="200" />
              <mxPoint x="331" y="200" />
            </Array>
          </mxGeometry>
        </mxCell>
        <mxCell id="zPcdAUlhvBkFaZPALM-u-36" value="pertenece" style="rhombus;whiteSpace=wrap;html=1;" parent="1" vertex="1">
          <mxGeometry x="326" y="130" width="70" height="60" as="geometry" />
        </mxCell>
        <mxCell id="zPcdAUlhvBkFaZPALM-u-39" value="Direccion" style="ellipse;whiteSpace=wrap;html=1;" parent="1" vertex="1">
          <mxGeometry x="411" y="20" width="100" height="60" as="geometry" />
        </mxCell>
        <mxCell id="zPcdAUlhvBkFaZPALM-u-51" value="" style="edgeStyle=orthogonalEdgeStyle;rounded=0;orthogonalLoop=1;jettySize=auto;html=1;" parent="1" source="zPcdAUlhvBkFaZPALM-u-49" target="zPcdAUlhvBkFaZPALM-u-14" edge="1">
          <mxGeometry relative="1" as="geometry" />
        </mxCell>
        <mxCell id="zPcdAUlhvBkFaZPALM-u-49" value="realiza" style="rhombus;whiteSpace=wrap;html=1;rounded=0;" parent="1" vertex="1">
          <mxGeometry x="290" y="335" width="60" height="60" as="geometry" />
        </mxCell>
        <mxCell id="CMqeh2ualkHhBmL2ZSUL-1" value="&lt;pre style=&quot;font-size: 6px;&quot;&gt;&lt;font style=&quot;font-size: 6px;&quot;&gt;  DNI&lt;br&gt;&lt;/font&gt;&lt;font style=&quot;font-size: 6px;&quot;&gt;  CUIL&lt;br&gt;&lt;/font&gt;&lt;font style=&quot;font-size: 6px;&quot;&gt;o nombre&amp;nbsp;&lt;br&gt;&lt;/font&gt;&lt;font style=&quot;font-size: 6px;&quot;&gt;o apellido&amp;nbsp;&lt;br&gt;&lt;/font&gt;&lt;font style=&quot;font-size: 6px;&quot;&gt;o fecha de nacimiento&amp;nbsp;&lt;br&gt;&lt;/font&gt;&lt;font style=&quot;font-size: 6px;&quot;&gt;o telÃ©fonos de contacto&amp;nbsp;&lt;br&gt;&lt;/font&gt;&lt;font style=&quot;font-size: 6px;&quot;&gt;o fecha de ingreso&amp;nbsp;&lt;br&gt;&lt;/font&gt;&lt;font style=&quot;font-size: 6px;&quot;&gt;o cantidad de hijos&amp;nbsp;&lt;br&gt;&lt;/font&gt;&lt;font style=&quot;font-size: 6px;&quot;&gt;o estado civil&lt;/font&gt;&lt;/pre&gt;" style="text;html=1;align=left;verticalAlign=middle;resizable=0;points=[];autosize=1;strokeColor=none;fillColor=none;" vertex="1" parent="1">
          <mxGeometry x="701" y="5" width="110" height="90" as="geometry" />
        </mxCell>
        <mxCell id="CMqeh2ualkHhBmL2ZSUL-8" value="" style="shape=waypoint;sketch=0;size=6;pointerEvents=1;points=[];fillColor=none;resizable=0;rotatable=0;perimeter=centerPerimeter;snapToPoint=1;" vertex="1" parent="1">
          <mxGeometry x="691" y="10" width="20" height="20" as="geometry" />
        </mxCell>
        <mxCell id="CMqeh2ualkHhBmL2ZSUL-9" value="" style="shape=waypoint;sketch=0;size=6;pointerEvents=1;points=[];fillColor=none;resizable=0;rotatable=0;perimeter=centerPerimeter;snapToPoint=1;" vertex="1" parent="1">
          <mxGeometry x="691" y="20" width="20" height="20" as="geometry" />
        </mxCell>
        <mxCell id="CMqeh2ualkHhBmL2ZSUL-10" value="&lt;pre style=&quot;font-size: 9px;&quot;&gt;Calle o&lt;/pre&gt;&lt;pre style=&quot;font-size: 9px; line-height: 80%;&quot;&gt;Nro o&lt;pre&gt;Piso (0,1) o&lt;br&gt;Depto(0,1) o&lt;/pre&gt;&lt;/pre&gt;" style="text;html=1;align=right;verticalAlign=middle;resizable=0;points=[];autosize=1;strokeColor=none;fillColor=none;" vertex="1" parent="1">
          <mxGeometry x="316" y="8" width="90" height="80" as="geometry" />
        </mxCell>
        <mxCell id="CMqeh2ualkHhBmL2ZSUL-12" value="&lt;pre style=&quot;font-size: 8px;&quot;&gt;nombre o&lt;br&gt;descripcion o&lt;br&gt;Codigo Unico&amp;nbsp;&amp;nbsp;&lt;/pre&gt;" style="text;html=1;align=right;verticalAlign=middle;resizable=0;points=[];autosize=1;strokeColor=none;fillColor=none;" vertex="1" parent="1">
          <mxGeometry x="40" y="118" width="90" height="60" as="geometry" />
        </mxCell>
        <mxCell id="CMqeh2ualkHhBmL2ZSUL-13" value="" style="shape=waypoint;sketch=0;fillStyle=solid;size=6;pointerEvents=1;points=[];fillColor=none;resizable=0;rotatable=0;perimeter=centerPerimeter;snapToPoint=1;" vertex="1" parent="1">
          <mxGeometry x="121" y="150" width="20" height="20" as="geometry" />
        </mxCell>
        <mxCell id="CMqeh2ualkHhBmL2ZSUL-14" value="&lt;pre style=&quot;line-height: 120%; font-size: 9px;&quot;&gt;&lt;font style=&quot;font-size: 9px;&quot;&gt;razÃ³n social o&lt;br&gt;&lt;/font&gt;&lt;font style=&quot;font-size: 9px;&quot;&gt; telÃ©fono (0,1) o&lt;br&gt;&lt;/font&gt;&lt;font style=&quot;font-size: 9px;&quot;&gt;instagram o&lt;br&gt;&lt;/font&gt;&lt;font style=&quot;font-size: 9px;&quot;&gt;facebook o&lt;/font&gt;&lt;/pre&gt;" style="text;html=1;align=right;verticalAlign=middle;resizable=0;points=[];autosize=1;strokeColor=none;fillColor=none;" vertex="1" parent="1">
          <mxGeometry x="31" y="420" width="120" height="70" as="geometry" />
        </mxCell>
        <mxCell id="CMqeh2ualkHhBmL2ZSUL-15" value="Direccion" style="ellipse;whiteSpace=wrap;html=1;" vertex="1" parent="1">
          <mxGeometry x="21" y="510" width="100" height="60" as="geometry" />
        </mxCell>
        <mxCell id="CMqeh2ualkHhBmL2ZSUL-16" value="&lt;pre style=&quot;font-size: 8px; line-height: 100%;&quot;&gt;o Calle&lt;br&gt;o Nro&lt;br&gt;o Piso (0,1)&lt;br&gt;o Depto(0,1)&lt;/pre&gt;" style="text;html=1;align=left;verticalAlign=middle;resizable=0;points=[];autosize=1;strokeColor=none;fillColor=none;" vertex="1" parent="1">
          <mxGeometry x="130" y="510" width="80" height="60" as="geometry" />
        </mxCell>
        <mxCell id="CMqeh2ualkHhBmL2ZSUL-19" value="&lt;pre&gt;&lt;font style=&quot;font-size: 9px;&quot;&gt;  FECHA DESDE&lt;/font&gt;&lt;/pre&gt;" style="text;html=1;align=center;verticalAlign=middle;resizable=0;points=[];autosize=1;strokeColor=none;fillColor=none;" vertex="1" parent="1">
          <mxGeometry x="321" y="88" width="90" height="50" as="geometry" />
        </mxCell>
        <mxCell id="CMqeh2ualkHhBmL2ZSUL-20" value="&lt;pre&gt;&lt;font size=&quot;1&quot;&gt; FECHA HASTA (0,1)&lt;/font&gt;&lt;/pre&gt;" style="text;html=1;align=center;verticalAlign=middle;resizable=0;points=[];autosize=1;strokeColor=none;fillColor=none;" vertex="1" parent="1">
          <mxGeometry x="321" y="185" width="130" height="50" as="geometry" />
        </mxCell>
        <mxCell id="CMqeh2ualkHhBmL2ZSUL-22" value="" style="shape=waypoint;sketch=0;fillStyle=solid;size=6;pointerEvents=1;points=[];fillColor=none;resizable=0;rotatable=0;perimeter=centerPerimeter;snapToPoint=1;" vertex="1" parent="1">
          <mxGeometry x="321" y="103" width="20" height="20" as="geometry" />
        </mxCell>
        <mxCell id="CMqeh2ualkHhBmL2ZSUL-23" value="" style="shape=waypoint;sketch=0;fillStyle=solid;size=6;pointerEvents=1;points=[];fillColor=none;resizable=0;rotatable=0;perimeter=centerPerimeter;snapToPoint=1;" vertex="1" parent="1">
          <mxGeometry x="321" y="200" width="20" height="20" as="geometry" />
        </mxCell>
        <mxCell id="CMqeh2ualkHhBmL2ZSUL-24" style="edgeStyle=orthogonalEdgeStyle;rounded=0;orthogonalLoop=1;jettySize=auto;html=1;entryX=0.41;entryY=0.72;entryDx=0;entryDy=0;entryPerimeter=0;endArrow=none;endFill=0;" edge="1" parent="1" source="zPcdAUlhvBkFaZPALM-u-36" target="CMqeh2ualkHhBmL2ZSUL-22">
          <mxGeometry relative="1" as="geometry">
            <Array as="points">
              <mxPoint x="331" y="140" />
              <mxPoint x="331" y="140" />
            </Array>
          </mxGeometry>
        </mxCell>
        <mxCell id="CMqeh2ualkHhBmL2ZSUL-31" value="&lt;h1 style=&quot;font-size: 8px; line-height: 40%;&quot;&gt;&lt;pre&gt;&lt;font style=&quot;font-size: 8px;&quot;&gt;Precio &lt;/font&gt;&lt;/pre&gt;&lt;pre style=&quot;&quot;&gt;de Venta&lt;/pre&gt;&lt;pre&gt;&lt;br&gt;&lt;/pre&gt;&lt;pre&gt;&lt;br&gt;&lt;/pre&gt;&lt;pre&gt;&lt;font style=&quot;font-size: 8px;&quot;&gt;Stock&lt;/font&gt;&lt;/pre&gt;&lt;/h1&gt;" style="text;html=1;align=right;verticalAlign=middle;resizable=0;points=[];autosize=1;strokeColor=none;fillColor=none;" vertex="1" parent="1">
          <mxGeometry x="230" y="490" width="60" height="80" as="geometry" />
        </mxCell>
        <mxCell id="CMqeh2ualkHhBmL2ZSUL-36" value="&lt;pre style=&quot;line-height: 120%; font-size: 8px;&quot;&gt;&lt;font style=&quot;font-size: 8px;&quot;&gt;o tipo de producto&lt;br&gt;&lt;/font&gt;&lt;font style=&quot;font-size: 8px;&quot;&gt;o marcao&lt;br&gt;&lt;/font&gt;&lt;font style=&quot;font-size: 8px;&quot;&gt;o modelo&lt;br&gt;&lt;/font&gt;&lt;font style=&quot;font-size: 8px;&quot;&gt;o talle&lt;br&gt;&lt;/font&gt;&lt;font style=&quot;font-size: 8px;&quot;&gt;&lt;font style=&quot;font-size: 8px;&quot;&gt;o &lt;/font&gt;descripciÃ³n&lt;br&gt;&lt;/font&gt;&lt;font style=&quot;font-size: 8px;&quot;&gt;o color&lt;br&gt;&lt;/font&gt;&lt;font style=&quot;font-size: 8px;&quot;&gt;  codigo&lt;/font&gt;&lt;/pre&gt;" style="text;html=1;align=left;verticalAlign=middle;resizable=0;points=[];autosize=1;strokeColor=none;fillColor=none;" vertex="1" parent="1">
          <mxGeometry x="541" y="480" width="110" height="100" as="geometry" />
        </mxCell>
        <mxCell id="CMqeh2ualkHhBmL2ZSUL-37" value="" style="shape=waypoint;sketch=0;fillStyle=solid;size=6;pointerEvents=1;points=[];fillColor=none;resizable=0;rotatable=0;perimeter=centerPerimeter;snapToPoint=1;" vertex="1" parent="1">
          <mxGeometry x="534" y="550" width="20" height="20" as="geometry" />
        </mxCell>
        <mxCell id="CMqeh2ualkHhBmL2ZSUL-40" value="" style="shape=waypoint;sketch=0;fillStyle=solid;size=6;pointerEvents=1;points=[];fillColor=none;resizable=0;rotatable=0;perimeter=centerPerimeter;snapToPoint=1;" vertex="1" parent="1">
          <mxGeometry x="290" y="500" width="20" height="20" as="geometry" />
        </mxCell>
        <mxCell id="CMqeh2ualkHhBmL2ZSUL-41" value="" style="shape=waypoint;sketch=0;fillStyle=solid;size=6;pointerEvents=1;points=[];fillColor=none;resizable=0;rotatable=0;perimeter=centerPerimeter;snapToPoint=1;" vertex="1" parent="1">
          <mxGeometry x="296" y="540" width="20" height="20" as="geometry" />
        </mxCell>
        <mxCell id="CMqeh2ualkHhBmL2ZSUL-44" value="" style="edgeStyle=orthogonalEdgeStyle;rounded=0;orthogonalLoop=1;jettySize=auto;html=1;" edge="1" parent="1" source="CMqeh2ualkHhBmL2ZSUL-42" target="zPcdAUlhvBkFaZPALM-u-14">
          <mxGeometry relative="1" as="geometry">
            <Array as="points">
              <mxPoint x="481" y="320" />
              <mxPoint x="480" y="320" />
            </Array>
          </mxGeometry>
        </mxCell>
        <mxCell id="CMqeh2ualkHhBmL2ZSUL-42" value="efectua" style="rhombus;whiteSpace=wrap;html=1;" vertex="1" parent="1">
          <mxGeometry x="451" y="250" width="60" height="50" as="geometry" />
        </mxCell>
        <mxCell id="CMqeh2ualkHhBmL2ZSUL-47" value="&lt;font style=&quot;font-size: 8px;&quot;&gt;Involucra&lt;/font&gt;" style="rhombus;whiteSpace=wrap;html=1;" vertex="1" parent="1">
          <mxGeometry x="446.5" y="425" width="49" height="50" as="geometry" />
        </mxCell>
        <mxCell id="CMqeh2ualkHhBmL2ZSUL-53" style="edgeStyle=orthogonalEdgeStyle;rounded=0;orthogonalLoop=1;jettySize=auto;html=1;entryX=0.476;entryY=0.016;entryDx=0;entryDy=0;entryPerimeter=0;" edge="1" parent="1" source="CMqeh2ualkHhBmL2ZSUL-47" target="zPcdAUlhvBkFaZPALM-u-13">
          <mxGeometry relative="1" as="geometry" />
        </mxCell>
        <mxCell id="CMqeh2ualkHhBmL2ZSUL-56" style="edgeStyle=orthogonalEdgeStyle;rounded=0;orthogonalLoop=1;jettySize=auto;html=1;entryX=0.343;entryY=0.167;entryDx=0;entryDy=0;entryPerimeter=0;endArrow=none;endFill=0;" edge="1" parent="1" source="CMqeh2ualkHhBmL2ZSUL-40" target="zPcdAUlhvBkFaZPALM-u-33">
          <mxGeometry relative="1" as="geometry" />
        </mxCell>
        <mxCell id="CMqeh2ualkHhBmL2ZSUL-59" style="edgeStyle=orthogonalEdgeStyle;rounded=0;orthogonalLoop=1;jettySize=auto;html=1;entryX=0.348;entryY=0.833;entryDx=0;entryDy=0;entryPerimeter=0;strokeColor=default;curved=0;endArrow=none;endFill=0;" edge="1" parent="1" source="CMqeh2ualkHhBmL2ZSUL-41" target="zPcdAUlhvBkFaZPALM-u-33">
          <mxGeometry relative="1" as="geometry" />
        </mxCell>
        <mxCell id="CMqeh2ualkHhBmL2ZSUL-60" value="o Fecha&lt;div&gt;o NÂ° Ticket&lt;/div&gt;&lt;div&gt;o Total&lt;/div&gt;" style="text;html=1;align=left;verticalAlign=middle;resizable=0;points=[];autosize=1;strokeColor=none;fillColor=none;" vertex="1" parent="1">
          <mxGeometry x="546" y="330" width="80" height="60" as="geometry" />
        </mxCell>
        <mxCell id="CMqeh2ualkHhBmL2ZSUL-65" value="" style="line;strokeWidth=1;html=1;perimeter=backbonePerimeter;points=[];outlineConnect=0;fillColor=default;" vertex="1" parent="1">
          <mxGeometry x="531" y="340" width="19" height="10" as="geometry" />
        </mxCell>
        <mxCell id="CMqeh2ualkHhBmL2ZSUL-66" value="" style="line;strokeWidth=1;html=1;perimeter=backbonePerimeter;points=[];outlineConnect=0;fillColor=default;" vertex="1" parent="1">
          <mxGeometry x="531" y="355" width="19" height="10" as="geometry" />
        </mxCell>
        <mxCell id="CMqeh2ualkHhBmL2ZSUL-67" value="" style="line;strokeWidth=1;html=1;perimeter=backbonePerimeter;points=[];outlineConnect=0;fillColor=default;rotation=30;" vertex="1" parent="1">
          <mxGeometry x="530.07" y="364.75" width="20" height="10" as="geometry" />
        </mxCell>
        <mxCell id="CMqeh2ualkHhBmL2ZSUL-72" value="" style="line;strokeWidth=1;html=1;perimeter=backbonePerimeter;points=[];outlineConnect=0;perimeterSpacing=1;" vertex="1" parent="1">
          <mxGeometry x="130" y="155" width="21" height="10" as="geometry" />
        </mxCell>
        <mxCell id="CMqeh2ualkHhBmL2ZSUL-73" value="" style="line;strokeWidth=1;html=1;perimeter=backbonePerimeter;points=[];outlineConnect=0;perimeterSpacing=1;" vertex="1" parent="1">
          <mxGeometry x="130" y="145" width="21" height="10" as="geometry" />
        </mxCell>
        <mxCell id="CMqeh2ualkHhBmL2ZSUL-74" value="" style="line;strokeWidth=1;html=1;perimeter=backbonePerimeter;points=[];outlineConnect=0;perimeterSpacing=1;" vertex="1" parent="1">
          <mxGeometry x="130" y="135" width="20" height="10" as="geometry" />
        </mxCell>
        <mxCell id="CMqeh2ualkHhBmL2ZSUL-76" value="(1,N)" style="text;html=1;align=center;verticalAlign=middle;resizable=0;points=[];autosize=1;strokeColor=none;fillColor=none;" vertex="1" parent="1">
          <mxGeometry x="414" y="130" width="50" height="30" as="geometry" />
        </mxCell>
        <mxCell id="CMqeh2ualkHhBmL2ZSUL-77" value="(1,N)" style="text;html=1;align=center;verticalAlign=middle;resizable=0;points=[];autosize=1;strokeColor=none;fillColor=none;" vertex="1" parent="1">
          <mxGeometry x="271" y="123" width="50" height="30" as="geometry" />
        </mxCell>
        <mxCell id="CMqeh2ualkHhBmL2ZSUL-78" value="(1,N)" style="text;html=1;align=center;verticalAlign=middle;resizable=0;points=[];autosize=1;strokeColor=none;fillColor=none;" vertex="1" parent="1">
          <mxGeometry x="210" y="390" width="50" height="30" as="geometry" />
        </mxCell>
        <mxCell id="CMqeh2ualkHhBmL2ZSUL-79" value="(1,1)" style="text;html=1;align=center;verticalAlign=middle;resizable=0;points=[];autosize=1;strokeColor=none;fillColor=none;" vertex="1" parent="1">
          <mxGeometry x="220" y="190" width="50" height="30" as="geometry" />
        </mxCell>
        <mxCell id="CMqeh2ualkHhBmL2ZSUL-80" value="(1,N)" style="text;html=1;align=center;verticalAlign=middle;resizable=0;points=[];autosize=1;strokeColor=none;fillColor=none;" vertex="1" parent="1">
          <mxGeometry x="281" y="410" width="50" height="30" as="geometry" />
        </mxCell>
        <mxCell id="CMqeh2ualkHhBmL2ZSUL-81" value="(1,1)" style="text;html=1;align=center;verticalAlign=middle;resizable=0;points=[];autosize=1;strokeColor=none;fillColor=none;" vertex="1" parent="1">
          <mxGeometry x="360" y="370" width="50" height="30" as="geometry" />
        </mxCell>
        <mxCell id="CMqeh2ualkHhBmL2ZSUL-82" value="(1,N)" style="text;html=1;align=center;verticalAlign=middle;resizable=0;points=[];autosize=1;strokeColor=none;fillColor=none;" vertex="1" parent="1">
          <mxGeometry x="430" y="390" width="50" height="30" as="geometry" />
        </mxCell>
        <mxCell id="CMqeh2ualkHhBmL2ZSUL-83" value="(1,N)" style="text;html=1;align=center;verticalAlign=middle;resizable=0;points=[];autosize=1;strokeColor=none;fillColor=none;" vertex="1" parent="1">
          <mxGeometry x="420" y="470" width="50" height="30" as="geometry" />
        </mxCell>
        <mxCell id="CMqeh2ualkHhBmL2ZSUL-84" value="(1,N)" style="text;html=1;align=center;verticalAlign=middle;resizable=0;points=[];autosize=1;strokeColor=none;fillColor=none;" vertex="1" parent="1">
          <mxGeometry x="470" y="195" width="50" height="30" as="geometry" />
        </mxCell>
        <mxCell id="CMqeh2ualkHhBmL2ZSUL-85" value="(1,1)" style="text;html=1;align=center;verticalAlign=middle;resizable=0;points=[];autosize=1;strokeColor=none;fillColor=none;" vertex="1" parent="1">
          <mxGeometry x="436" y="305" width="50" height="30" as="geometry" />
        </mxCell>
        <mxCell id="CMqeh2ualkHhBmL2ZSUL-86" value="(1,1)" style="text;html=1;align=center;verticalAlign=middle;resizable=0;points=[];autosize=1;strokeColor=none;fillColor=none;" vertex="1" parent="1">
          <mxGeometry x="570" y="195" width="50" height="30" as="geometry" />
        </mxCell>
        <mxCell id="CMqeh2ualkHhBmL2ZSUL-87" value="(1,N)" style="text;html=1;align=center;verticalAlign=middle;resizable=0;points=[];autosize=1;strokeColor=none;fillColor=none;" vertex="1" parent="1">
          <mxGeometry x="651" y="390" width="50" height="30" as="geometry" />
        </mxCell>
        <mxCell id="CMqeh2ualkHhBmL2ZSUL-88" value="(1,1)" style="text;html=1;align=center;verticalAlign=middle;resizable=0;points=[];autosize=1;strokeColor=none;fillColor=none;" vertex="1" parent="1">
          <mxGeometry x="731" y="390" width="50" height="30" as="geometry" />
        </mxCell>
        <mxCell id="CMqeh2ualkHhBmL2ZSUL-89" value="(1,1)" style="text;html=1;align=center;verticalAlign=middle;resizable=0;points=[];autosize=1;strokeColor=none;fillColor=none;" vertex="1" parent="1">
          <mxGeometry x="760" y="200" width="50" height="30" as="geometry" />
        </mxCell>
        <mxCell id="CMqeh2ualkHhBmL2ZSUL-90" value="(1,N)" style="text;html=1;align=center;verticalAlign=middle;resizable=0;points=[];autosize=1;strokeColor=none;fillColor=none;" vertex="1" parent="1">
          <mxGeometry x="210" y="580" width="50" height="30" as="geometry" />
        </mxCell>
        <mxCell id="CMqeh2ualkHhBmL2ZSUL-91" value="(1,1)" style="text;html=1;align=center;verticalAlign=middle;resizable=0;points=[];autosize=1;strokeColor=none;fillColor=none;" vertex="1" parent="1">
          <mxGeometry x="691" y="480" width="50" height="30" as="geometry" />
        </mxCell>
        <mxCell id="CMqeh2ualkHhBmL2ZSUL-92" value="(1,N)" style="text;html=1;align=center;verticalAlign=middle;resizable=0;points=[];autosize=1;strokeColor=none;fillColor=none;" vertex="1" parent="1">
          <mxGeometry x="266" y="475" width="50" height="30" as="geometry" />
        </mxCell>
        <mxCell id="CMqeh2ualkHhBmL2ZSUL-93" value="(1,N)" style="text;html=1;align=center;verticalAlign=middle;resizable=0;points=[];autosize=1;strokeColor=none;fillColor=none;" vertex="1" parent="1">
          <mxGeometry x="370" y="500" width="50" height="30" as="geometry" />
        </mxCell>
        <mxCell id="CMqeh2ualkHhBmL2ZSUL-99" style="edgeStyle=orthogonalEdgeStyle;rounded=0;orthogonalLoop=1;jettySize=auto;html=1;entryX=0.874;entryY=0.04;entryDx=0;entryDy=0;entryPerimeter=0;" edge="1" parent="1" source="zPcdAUlhvBkFaZPALM-u-17" target="zPcdAUlhvBkFaZPALM-u-20">
          <mxGeometry relative="1" as="geometry" />
        </mxCell>
      </root>
    </mxGraphModel>
  </diagram>
</mxfile>
